<svg xmlns="http://www.w3.org/2000/svg" viewBox="0 0 481.91 399.75" fill="#ffff"><g id="Calque_2" data-name="Calque 2"><g id="Calque_1-2" data-name="Calque 1"><path d="M237,.62a39.59,39.59,0,0,0-22.5,19.8c-9.6,20,2.6,47.9,23.4,53.5,2.3.6,4.4,1.7,4.7,2.5.7,1.8-3.9,12.3-8.5,19.5s-17,19.4-25.6,25.2c-3.9,2.5-17.6,10.4-30.5,17.4-28.9,15.7-33.3,18.7-41.8,28.8-3.1,3.7-10.5,18.8-12.8,26.1-2.5,8.1-2.7,28.8-.2,35.5,2.5,6.9,5.1,12.2,7.6,15.7,3,4.2,2.8,5-1.3,6.7-3.9,1.7-5,4.5-4.2,10.7s3.1,8.9,7.7,8.9c2.1,0,4.2.5,4.5,1.1,1,1.5.8,55-.2,56-.5.5-8.5,1-17.8,1.1l-17,.3-.7-23.4c-.5-18.9-.4-24.6.8-29,1.9-7.3,1.9-20,0-22.7a16.92,16.92,0,0,0-5.5-3.9l-4.1-1.8v-76.3l-3-2.9c-2.9-2.8-3-3.2-3-11.6V149l-4.2-3.3c-2.4-1.9-6.9-5.2-10.1-7.3s-6.1-4.3-6.4-4.8a38.4,38.4,0,0,1-1.4-6.5c-1.1-7.6-3.4-17.4-4.7-19.8a29.47,29.47,0,0,1-1.7-6.1c-.6-4.1-.5-4.5,3.4-8,6.1-5.5,5.3-10-1.7-8.7-1.7.3-4.3-.3-7.2-1.8-9.4-4.8-10-14.1-1.3-19.6,4.7-3,5.3-4.6,2.3-6.2-4.9-2.6-14.8,2.5-19.6,10.1-5.1,8.1-2.7,20.1,5.1,25.6,1.5,1,3.8,2.7,5.1,3.8l2.5,2-2.6,9.5c-1.4,5.2-3,12.4-3.5,16-1,7.3-2.1,8.6-12.9,15.3a96.53,96.53,0,0,0-9.2,6.5l-3.2,2.6.6,9.3.6,9.3-4.6,4.7-4.6,4.7.7,11.5c.3,6.4.6,23,.7,36.8.2,26.4-.1,28.3-4.2,28.3-3.6,0-4.9,3.8-4.9,14.2,0,11.5.8,14.1,4.9,15.8,1.7.7,3.1,1.5,3.1,1.9s-.7,3.3-1.5,6.6c-1,4.2-1.5,12-1.5,26.2v20.3h6v-45l4.3.6c3.9.6,4.6.3,6.8-2.3s2.9-2.8,7.5-2.5c5,.4,5.2.3,6.2-2.7,1.2-3.4,3.2-4,5.2-1.6s5.5,1.8,9.1-1.2l3.2-2.7-.7,3.9c-.4,2.2-1,14.1-1.5,26.5-.8,21.7-.7,22.6,1.2,24.3,1.6,1.4,2.2,1.5,3.4.5s1.4-4.8.9-26.3c-.6-23.1-2.1-44.4-2.4-35.3-.2,4.3-1.3,4.7-4.9,1.8-4.1-3.2-8-2.6-10.4,1.5l-2.1,3.4-3.9-2.6c-2.1-1.4-3.6-2.9-3.4-3.3s3.6-1.8,7.3-3.1a82.68,82.68,0,0,0,9.5-3.6c2.4-1.2,3.2-1.2,5.7.1,1.7.8,3.2,1,3.6.5.7-1.2,5.7-1.2,7,0,.8.9,6.5,2.6,12.7,3.8,3.4.7,3.4,1.9.1,4.9s-3.5,3-5.9-.6c-1.5-2.3-2.8-3-5.2-3-5.7,0-8.1,5-4.7,9.8,1.6,2.3,6.7,3.1,7.9,1.2,1.1-1.7,3.1-1.1,4.5,1.4,1.5,3,4.2,3.8,8,2.4,3.5-1.2,4.4-3.5,3-7.2-1.5-4-1.4-4.2,3.3-5.7,5.1-1.7,9.3-1.3,10.1.8.9,2.3-.1,2.8-2.8,1.4a7.48,7.48,0,0,0-4.1-.9c-1.8.3-1.8.4-.1,2.1,2,1.9,1.8,2.4-1.6,4.1-5.5,2.7-1.9,12.6,4,11.2,1.5-.4,3.3-.8,4-.9,1.1-.2,1.3,3.8,1.2,19.9-.1,16.8.2,20.3,1.4,21.4,1.2.9,5.7,1.1,19.3.5,19.1-.7,24.7-1.6,25.7-4.1.3-.9.6-14.5.6-30.4,0-26.7.1-28.9,1.8-29.2.9-.2,16.8-.4,35.2-.4l33.5.1.3,9.9.2,9.9-9.2,9.1c-5.1,5-11.5,10.3-14.3,11.7-12,6.2-48.2,27.1-53.8,31.1-1.8,1.3-1.8,1.4.2,3.7s2.1,3.3,1.9,24.5l-.3,22.1h-2.7c-3.9.1-5.3,1.7-3.8,4.5,1,1.9,1.8,2.1,4.8,1.6,2.1-.3,50.5-.8,107.7-1.2s104.4-1,104.9-1.4c1.7-1.6-.3-4-3.2-4a6.13,6.13,0,0,1-4-1.3c-.6-.7-.8-9.1-.6-21.9.2-17.3.6-21.1,2-23.3,1.9-3,.9-4.8-4-7a151.71,151.71,0,0,1-15.3-8.8,26.72,26.72,0,0,0-4.9-2.7,38.76,38.76,0,0,1-6.3-3.4c-3.1-1.9-9.4-5.4-14.1-7.9-31.8-16.6-32-16.7-32-33.9,0-8,.3-10.8,1.3-10.8,9.2-.4,84,0,84.4.4s.4,13.8.4,30.2c-.2,26.7,0,29.8,1.5,31.5s3.3,1.9,18.6,1.9c22.9,0,21.2,2.2,20.6-26.6-.3-12.3-.4-22.4-.3-22.4s1.6.7,3.2,1.5c3.7,1.8,7.6.8,9.3-2.6.9-1.6,1.8-2,4.3-1.6,4.1.6,7.5-1,7.9-3.7.3-1.8.9-2.1,4.6-1.8,2.5.2,4.2-.1,4.2-.7s.7-1.1,1.5-1.1c1.4,0,1.5,3,.9,26.7-.5,22.4-.4,27.1.8,28.7,1.4,1.8,1.5,1.8,3.2,0,1.7-1.6,1.8-3.6,1.2-25.8-.3-13.3-.8-28.5-1.1-33.9-.7-11.1.1-12.3,5.7-9,4.4,2.6,4.5,4,.4,5.9-5.4,2.6-5.9,7.7-1,10.9,2.2,1.4,2.8,1.4,5.4.1,2.9-1.4,2.9-1.4,3.6,1.9.8,4.4,4.3,6.4,8.1,4.4,1.6-.7,3.1-1.5,3.6-1.7s.7.9.7,2.5c0,4.4,3.8,7.5,8.6,7.1,3.6-.3,3.9-.1,3.8,2.2-.1,1.4-.3,10.1-.5,19.3-.2,13.7,0,17.1,1.2,17.8,1.9,1.2,2.5,1.1,4.2-.5,1.1-1.2,1.3-4.9,1-19.8-.3-10-.9-20.7-1.4-23.7-.8-5-.7-5.7,1.6-8.7,2.4-3.2,2.6-4,2.3-13.6l-.3-10.2-5.5-3.1-5.5-3.1v-74.4l-4.4-3.8-4.4-3.8.7-6.3c.9-7.6,0-9.3-7.7-14.4-7.3-4.9-7.7-5.5-8.3-13.3a277,277,0,0,0-4.6-29.8l-1-4.8,4.6-4.5c6.2-6,5.9-7.6-1.9-8.3-9.1-.8-14.5-5.4-14.5-12.4,0-3.4,2.7-7.1,8-10.7,1.6-1.1,2.1-2.1,1.7-3.3-.6-1.5-1.6-1.8-6-1.4-9.1.7-16.2,8.1-17.4,17.8-.8,7.1,1.1,11.7,7.5,17.7l5.6,5.3-1.3,6.2c-3.1,14.8-4.2,20.7-5.1,26.7a48.57,48.57,0,0,1-1.6,7.3c-.3.5-3.9,2.4-7.9,4.3-9.3,4.2-10.5,6-10.5,15.2,0,7.5-.1,7.7-5.5,12.2-1.6,1.2-1.7,4.7-1.4,37.5l.4,36.1-4.4,2.1c-2.4,1.2-4.8,2.8-5.3,3.7s-.7,6.1-.5,11.4c.3,7.3.9,10.8,2.5,13.8,1.8,3.5,1.9,4.8,1.1,10-.5,3.3-.8,13.8-.8,23.3.1,9.9-.3,17.8-.8,18.3s-6.6.8-13.9.7l-12.9-.3-.3-28.8-.2-28.7h4.9c7.2,0,9.2-2,9.8-10,.4-5.6.2-6.9-1.7-9.3a6.18,6.18,0,0,0-5.6-2.7c-1.9,0-3.4-.4-3.4-1s1.5-3.3,3.3-6.2c5.6-8.7,7.2-15.5,7.2-29.8-.1-22.7-6.8-40-21.9-55.8-13-13.5-27.7-23.1-43.8-28.3-22.3-7.3-38.8-20.7-47.3-38.4C259,85.32,257,79.72,257,78c0-2.8.5-3.4,5.8-5.7,8.6-3.8,21.6-17.3,19.7-20.4-.9-1.4-4.1-1.2-8.3.6-2.6,1.1-6.7,1.5-13.5,1.5-12.8-.1-16.9-2-21-10.1-2.5-4.8-2.8-6.4-2.5-12.5.5-10.9,4.2-17.3,15.2-25.9,2-1.5,2.7-2.8,2.3-3.9-.5-1.4-2-1.7-8.4-1.6A51,51,0,0,0,237,.62Zm5,5.7a2.53,2.53,0,0,1-.9,2c-2.1,1.3-7.9,11.4-9.1,15.9-1.8,6.5-.8,16.3,2.1,22.2,5.2,10.5,14.4,14.4,30.1,13l8.3-.7-2.3,2.5a40.69,40.69,0,0,1-8.5,5.8c-11.6,6.2-24.6,4-33.8-5.8-5.7-5.9-8.5-11.1-10.4-19.4-1.7-7.2-1.7-7.8,0-13,3.3-9.9,9.2-17.1,17.8-21.6C240.2,4.62,242,4.42,242,6.32ZM41,73.12c0,7.2,6.6,14.8,12.8,14.8,3,0,4.1,2.9,1.7,4.6-3.7,2.7-7.1,1.7-12.4-3.6-5.6-5.6-7.1-10.5-5.1-16.5C39.6,67.62,41,68,41,73.12Zm384,3.7c0,4.4.5,6.5,2.1,8.5,2.3,2.9,6.8,5.6,9.6,5.6,3.3,0,4.6,1.5,3.4,3.9-1.8,3.3-7.7,2.9-12.5-1.1-4-3.2-7.6-10.2-7.6-14.4,0-2.9,2.6-8.4,4-8.4C424.6,70.92,425,73.52,425,76.82Zm-172.2,6.6c3.2,15,13.1,28.4,29,39.3,5,3.4,20.7,11.2,22.6,11.2,2.4,0,15.2,5.9,22.6,10.3,13.8,8.3,23.8,17.9,30.8,29.5a40,40,0,0,1,3.2,5.8,22.49,22.49,0,0,0,1.5,3.7c3.8,8.4,4.7,12.6,5.2,26.3.5,11.9.3,15.1-1.2,20-2.1,6.8-7,16.7-9.4,18.8-1.3,1.2-8.3,1.5-43.3,1.7-43.2.2-44.8.1-44.8-3.8,0-1.5-4.1-9.9-12.5-25.8-12.9-24.2-13.4-25.4-13.3-31.9.1-5,.6-6.6,2.6-8.8l2.4-2.6-3.3-4.1c-3.7-4.7-5.6-5.1-6.9-1.7a5.89,5.89,0,0,1-2.9,3.1c-2.9.9-2.6,3.3.4,4.7,2.4,1.1,2.5,1.6,2.5,8.9,0,7-.3,8.4-3.5,14.1-1.9,3.5-8.1,15.5-13.7,26.8s-10.2,20.6-10.3,20.8-15.7.3-34.6.2c-39.1-.1-35.4.8-40.9-9.5-5.8-10.7-7.3-16.8-7.3-29.5-.1-8.4.4-13.2,1.8-18a84.93,84.93,0,0,1,11.3-23c3-3.9,9.3-10,10.5-10s.7,2.7-.9,4.1c-4.6,3.8-16.8,25.5-16.2,28.7a2.49,2.49,0,0,0,2.6,1.7c1.9,0,2.8-1.1,4.9-6.5,8-20.1,26.5-38.2,44.2-43.3,4.2-1.2,5.3-2.2,6.5-5.9.3-1,3.3-3.1,6.6-4.7,12.7-6.2,30.8-21.3,38-31.6,3.9-5.7,8.6-15.2,10.1-20.8C249,75,251.1,75.72,252.8,83.42Zm180.7,32.9c-.4,5.6-.7,11.6-.6,13.4.2,4.5-2.4,9.2-5,9.2-1.9,0-2-.4-1.5-3.3.3-1.7,1-6.1,1.5-9.7a54.6,54.6,0,0,1,2-9.3,19.17,19.17,0,0,0,1.1-5.7c0-3.8,1-6.1,2.2-5.3C433.9,106,434,109.62,433.5,116.32ZM59,120.72c.6,3.4.8,6.7.5,7.2-1.1,1.7-4.2-.7-5.4-4.1s-1.5-11.8-.4-14.5C54.6,106.82,57.6,113,59,120.72Zm380.9.2c.6,5.8,1.4,12.2,1.7,14.2.6,3.4.4,3.8-1.4,3.8a4,4,0,0,1-2.9-1.3c-1.3-2.2-.2-28.9,1.3-27.5A94.07,94.07,0,0,1,439.9,120.92Zm-390.1-.8c-.3,5.8-.5,6.3-2.7,6.6s-2.3.1-1.7-2a48.47,48.47,0,0,0,1.2-5.8c.3-1.9.8-4.6,1-6C48.6,108.32,50.1,113.42,49.8,120.12Zm11.5,16.6c3.9,3.2,10.2,8,14,10.7,7,5.1,6.7,4.6,7.1,13.2.1,2.7-2.8,2.7-6,0-5.3-4.4-22.5-15.7-24-15.7S35.2,155,28.8,160.12c-5.3,4.1-7.4,3.5-7-2.2.4-7.6.9-8.4,7.9-12.8,3.8-2.3,9.7-6.4,13.3-9.1s7.5-5,8.8-5S57,133.32,61.3,136.72Zm383.3,11.1c13.8,10.4,13.4,10,13.4,13.6,0,1.9-.4,3.6-1,4s-5.3-2.8-10.7-6.8c-14.6-11-12.1-10.8-26.1-1.7-6.6,4.3-12.3,7.6-12.6,7.2-.9-.8-.7-7.5.2-9,1.5-2.3,22.6-13,25.8-13.1C436,141.92,438.7,143.42,444.6,147.82Zm-395.2,5.9c1,1.6.9,35.7-.1,35.7-.6,0-4.3-3-8.3-6.8s-8-6.7-9-6.7c-1.8,0-7.2,6.6-10.8,13.2-2.9,5.3-5.4,8.8-6.3,8.8-1.2,0-1.1-18.7.1-21,.5-1,7.5-6.2,15.5-11.5s14.9-10.3,15.6-11.1C47.4,152.72,48.6,152.52,49.4,153.72Zm24.1,10.8c7.2,4.8,13.6,9.4,14.3,10.2,1.5,1.9,1.7,19.8.2,20.7-.6.3-1.3-.2-1.7-1.2-1.4-3.9-10.8-18.5-12.4-19.4-2.2-1.1-3.8.4-11.5,10.8-3.9,5.2-5.9,7.1-7,6.6s-1.4-1.4-1-3.2c1.5-6.8,1.9-23.4.6-28.7-1.2-4.8-1.2-5.7.1-6.4.9-.6,2.1-.4,3.4.5C59.6,155.22,66.4,159.82,73.5,164.52Zm357.3,10.4c.1,9.6,0,18.1-.3,18.8-.4,1-1.3.2-3.1-2.4a76.42,76.42,0,0,0-7.7-8.7c-3.9-3.8-5.5-4.7-6.7-4-.8.6-3.5,4.4-6,8.6s-4.8,7.7-5.2,7.7c-1.4,0-1.8-4.5-1-12l.7-7.5,9-6c5-3.3,11.1-7.5,13.5-9.3s4.9-3.1,5.5-2.9S430.6,164.12,430.8,174.92Zm10.4-14.3c2.4,2.1,4.5,4.1,4.8,4.4s2.5,1.9,5,3.6,5.9,4.3,7.5,5.7,3.3,2.6,3.7,2.6c1.7,0,3,4.8,3.5,12.6.7,11.3-1.2,11.3-6.7.2-4.3-8.9-5.3-9.7-9.3-7.3-1.8,1.1-3.6,2.3-4.2,2.7s-3.2,2.5-5.9,4.5l-4.9,3.6.7-10.9a118.89,118.89,0,0,0-.3-17.4C433.9,155.42,434.7,154.92,441.2,160.62ZM77.6,188.72a52,52,0,0,0,3.3,5.2,16.59,16.59,0,0,1,2.3,3c1.3,2.1,1.6,6.5,1.9,24.8.3,17.1.1,22.3-.8,22.7-.7.2-5.2-1.1-10-2.9s-10.1-3.7-11.8-4.2l-3-.9-.3-19.5-.2-19.5,6.6-7.8C73,180.92,73.1,180.92,77.6,188.72Zm-37.3.5,5.7,5.4v19.9c0,14.5-.3,20.5-1.2,21.6-.7.9-4,2.6-7.3,3.8s-8.2,3.3-10.9,4.6c-3.4,1.7-5.2,2.2-6,1.4-.5-.5-1.1-4.3-1.2-8.3s-.5-13.1-.9-20.4L17.9,204l3.9-5.8c2.2-3.2,5.1-7.7,6.6-10.1s3.4-4.2,4.4-4.2S37.1,186.32,40.3,189.22Zm382.7,3.6c2.5,2.2,2.5,2.4,2.8,21.1.2,11.9-.1,19.6-.7,20.9a6.64,6.64,0,0,1-4.3,2.6,68,68,0,0,0-9.6,3.7c-3.5,1.7-6.6,2.7-7,2.3-1.3-1.2-.1-42.9,1.2-44.5a89.12,89.12,0,0,0,5.1-7.8l3.7-6.4,3.2,3C419.1,189.32,421.6,191.62,423,192.82Zm29.7-3.7a47,47,0,0,1,3.4,5.8,47.51,47.51,0,0,0,3.9,6.4c1.2,1.5,1.5,5.7,1.7,23.1.3,24,.2,24.3-6.4,19.7a69.21,69.21,0,0,0-7.8-4.6c-2.2-1-4.7-2.2-5.5-2.6-1.2-.6-1.5-4.2-1.8-21.3L440,195l4.2-2.7c2.4-1.5,4.5-3.1,4.6-3.5C449.3,187.52,451.6,187.72,452.7,189.12ZM52.3,216.62c.3,14.9.2,17.3-1.1,17.3s-1.4-1.1-.9-6.8c.4-3.7.7-12.1.8-18.7C51.3,192.12,51.8,195.72,52.3,216.62Zm196.1,1c8.7,17.6,13.3,26.2,15.2,28.4a5.15,5.15,0,0,1,1.4,3c0,1.2-3.9,1.4-24,1.4-18.4,0-24-.3-24-1.2,0-.7,3.4-7.6,7.5-15.2s9.2-17.8,11.4-22.5,4.3-8.6,4.6-8.6S244.3,209.52,248.4,217.62Zm191.2,23.8c1.7,1.3,8.9,5.2,16,8.6,14.4,7,19.6,10.2,20.6,12.7,1.3,3.3.9,10.2-.7,10.8-.8.3-4.1-.9-7.2-2.7s-10.3-5.6-15.8-8.4-12.2-6.4-14.9-7.9-5.1-2.4-5.5-2.3-2.4,1.1-4.6,2.2-5.3,2.4-7,3.1-8.5,3.6-15.3,6.4c-15.6,6.7-16.4,6.2-13.7-7.5.5-2.3,4.1-4.1,15.5-7.9,4.1-1.3,11.6-4.2,16.5-6.4C433.1,237.82,434.7,237.82,439.6,241.42Zm-387.4,8c-.4,8.6-1.6,10.6-7.2,12-2.3.6-19,7.2-31.7,12.5-7.7,3.3-8.4,2.6-8.1-6.7l.3-7.8,5-2.7a48.81,48.81,0,0,1,8-3.3,33.55,33.55,0,0,0,4.5-1.5,64.14,64.14,0,0,1,8-3.1,96.23,96.23,0,0,0,11.5-5.1c2.8-1.5,6.1-2.6,7.5-2.5C52.4,241.42,52.5,241.52,52.2,249.42Zm13.2-5.6c3.4,1.5,9.3,3.8,13.1,5.1a131.26,131.26,0,0,1,13.3,5.2l6.3,3-.3,7.1-.3,7.2-3.5-.3a17.61,17.61,0,0,1-5.4-1.4c-1-.6-8.4-3-16.4-5.4s-14.9-4.9-15.4-5.6-.8-5-.8-9.6C56,239.52,56.1,239.42,65.4,243.82Zm143.7,13.1q1.8,1.05,2.4,0a2.82,2.82,0,0,1,2.1-1c1.6,0,2,7.5.4,8.5-.5.3-18.7.8-40.4,1-34.9.4-39.6.3-41-1.1-2.3-2.2-2.1-7.3.3-8.2C135.8,255,207,255.82,209.1,256.92Zm157.3-1c2.1.8,2.6,1.6,2.6,4.2,0,6.4,2.9,6.1-50.6,5.9-30.8-.1-49.2-.5-50-1.2-1.6-1.3-2.3-6.8-1-7.7.6-.4,22-.9,47.6-1.2s47-.7,47.7-.8A9.06,9.06,0,0,1,366.4,255.92Zm-103.6,15.9c.1,8.5-.1,15.8-.6,16.3s-3-1.6-5.7-4.9-7.2-8.2-10.1-11.1c-6.4-6.4-6.1-6.5-16.7,4.7-4.1,4.5-8.2,8.1-8.9,8.1-1.2,0-1.4-2.7-1.2-14.3.1-7.8.2-14.3.3-14.5s9.7-.1,21.4,0l21.2.3Zm168.3-8.2c1.4,3.8-.8,6-4.2,4.3s-3.5-1.8-.9-4.5C429,260.22,429.8,260.32,431.1,263.62Zm-17.7,3.2c.3.5,1.5.7,2.6.4,3.2-.9,5.1,1.3,3.8,4.3-.9,1.9-1.8,2.4-3.7,2.2-2.2-.3-2.6-.8-2.3-3.1.2-2.1-.1-2.7-1.8-2.7-1.1,0-2-.5-2-1C410,265.72,412.7,265.62,413.4,266.82Zm-5.6,2.9c.2.6-1.2,1.5-3,2.1-3.2.9-3.2.9-.5,1,3.4.1,4.6,2.7,2.3,4.9-1.6,1.6-1.9,1.5-4-1.1-2.3-2.8-5.4-3.5-7.4-1.5-1.6,1.6-2.5.4-1.7-2.1.4-1.5,1.5-2.1,3.5-2.1a14.63,14.63,0,0,0,5.6-1.5C405.7,267.82,407.2,267.92,407.8,269.72Zm44,.2c2.3,1.1,4.2,2.7,4.2,3.4,0,1.2-5.7,4.4-6.4,3.5a83.63,83.63,0,0,1-4.6-8.5C445,267.42,447.9,268,451.8,269.92Zm-23.8,2.4a2.85,2.85,0,0,1-.8,2c-1.3.8-3.5-1.1-2.8-2.3C425.4,270.42,428,270.62,428,272.32Zm16,2.6a2.36,2.36,0,0,1-1.1,1.6,1.92,1.92,0,0,1-2.5-2.5C441.1,272.92,444,273.62,444,274.92Zm19.1.5c3.3,1.4,7.9,4.8,7.9,5.8,0,.4-8,2.7-9.4,2.7-.3,0-.6-.8-.6-1.8a14.17,14.17,0,0,0-1.5-4.6,21.66,21.66,0,0,1-1.5-3.2C458,273.52,459.8,273.92,463.1,275.42Zm-216.4,5.2c2.8,3.2,6.6,7.4,8.4,9.3s5.4,5.7,7.8,8.5,8,8.8,12.5,13.5,10.7,11.4,13.8,15,7.9,8.9,10.7,11.7l5.1,5.3-.2,24.2-.3,24.3h-38l-.5-30.5c-.6-34-.4-33.4-8-41-6.7-6.7-18-8.6-27.5-4.5-4.4,1.9-9,6.4-11.6,11.5-2.3,4.4-2.4,5.2-2.7,34.2-.3,26.9-.4,29.8-2,30.5-.9.5-9.8.6-19.7.3l-18-.5v-24c0-13.2.2-24.8.5-25.7s2.8-4,5.5-7,7.7-8.5,10.9-12.3c14.3-17.1,44.8-48.4,47.2-48.5C241.2,274.92,243.9,277.52,246.7,280.62ZM26,278.12c-.1,4.4-7,6.8-7,2.5,0-1.3.3-2.7.7-3C20.9,276.42,26,276.92,26,278.12Zm389-.2c0,.5-.7,1-1.5,1s-1.5-.5-1.5-1,.7-1,1.5-1S415,277.32,415,277.92Zm-336.4,6.7c-1.1,1.1-1.9-.6-1.1-2.4s.8-1.7,1.2,0A3.05,3.05,0,0,1,78.6,284.62Zm13.9,2.2c.7,1.2-1.2,2.4-2.5,1.6-1.1-.7-.4-2.5,1-2.5A2.2,2.2,0,0,1,92.5,286.82Zm377,0c.7,1.2-1.2,2.4-2.5,1.6-1.1-.7-.4-2.5,1-2.5A2.2,2.2,0,0,1,469.5,286.82Zm-168.3,36.4c6.8,3.9,14.8,8.4,17.9,9.9,6.3,3,8.7,5.3,6.7,6.1a78.08,78.08,0,0,1-9.9.2l-8.6-.3-5.4-5.8c-3-3.2-7.5-8.1-10.1-10.8C283.3,313.62,285.1,313.72,301.2,323.22Zm-111.4-3.4c-.1.5-2.8,3.5-5.8,6.8s-6.5,7.1-7.6,8.5a15.18,15.18,0,0,1-4.8,3.8c-3.2,1.2-11.2,1.2-14.1.1-1.7-.7-1.3-1.2,3.3-3.7,2.9-1.6,7.9-4.5,11-6.5,7.6-4.8,16.5-9.8,17.5-9.9C189.8,318.92,190,319.32,189.8,319.82Zm49,10c.2,4.5-.2,7.8-.9,8.7-1.6,1.9-11.8,1.9-12.5,0-1.3-3.3,8.4-17,11.5-16.4C238.2,322.42,238.6,324,238.8,329.82Zm8-6.4c2.5,1.8,6.7,8.7,7.6,12.6.8,3.6-1,4.8-6.4,4l-4.5-.6-.8-7.5C241.7,321.72,242.3,320.42,246.8,323.42Zm12.1,8.7c0,3.1-.1,3.1-1,1-.5-1.3-.7-2.8-.3-3.3C258.6,328.22,259,328.92,258.9,332.12Zm-92.2,11.5c.8.3,1.1,1.3.8,2.4-.5,1.4,0,2.2,1.9,2.9l2.6,1v21c0,13.3-.4,20.9-1,20.5s-.7-3.8-.3-8.5c.5-7.4.4-8.3-1.9-11.7-1.4-2.1-3.2-5-4.2-6.6-2.4-4-5-3.4-9.5,2.3-4.7,5.9-5.5,9.1-4.6,17.5.5,5,.3,6.5-1,7.8a3,3,0,0,1-3.1,1c-2.1-.8-1.5-48,.7-49.4C148.6,342.92,164.4,342.72,166.7,343.62Zm169.1.2c1,.6,1.3,6.1,1.3,23.7v24c-.1,1.8-3,2.5-5.2,1.4-1.7-1-1.9-2.2-1.9-11.8v-10.8l-4.3-4.8-4.3-4.9-3.6,4.4a50.53,50.53,0,0,0-4.7,6.7c-.7,1.2-1.6,2-2.2,1.6-1.4-.8-.3-22.2,1.2-24a3.68,3.68,0,0,0,.5-3.1,1.84,1.84,0,0,1,.3-2.2C314.4,343.12,334.4,342.92,335.8,343.82Zm-97.7,1.3c0,1.1,0,42.6-.1,46.5,0,2.1-12.6,1.8-13.4-.3s-.8-15.3.1-33.2l.6-14.2h6.4C236,343.92,238,344.32,238.1,345.12Zm16,.4c1.4,1.8,1.3,43.7-.2,46.5-.7,1.4-1.7,1.6-4.7,1.2-2-.3-4.1-.9-4.6-1.4s-1-10.9-1.1-23.3c-.2-21.1-.1-22.5,1.7-23.3C248.4,343.82,252.8,343.92,254.1,345.52Zm71.9,37.3q0,8.85-1.2,9.9c-1.2.9-6.4.9-7.4-.1-.7-.6-.8-3.9-.6-12.4.2-6.1.6-7.6,2.5-9.3l2.2-2.1,2.3,2.6C325.7,373.72,326,375.12,326,382.82Zm-161.6-9.7c.8,1.8,1.7,6.6,1.9,10.6.6,6.9.5,7.3-1.9,8.8-1.9,1.3-3.2,1.5-5.7.8l-3.2-1-.3-7.7c-.2-6.6.1-8.4,1.8-11.3C159.7,369,162.5,368.92,164.4,373.12ZM311,388.52c0,.8-.4,1.4-1,1.4s-1-.9-1-2.1.5-1.7,1-1.4A2.52,2.52,0,0,1,311,388.52Z"/><path d="M134,201.42c-1,1.2-1,2.1-.2,4,1.2,2.6,2,2.9,4.6,1.9,2.2-.9,2-5.1-.3-6.4C135.6,199.62,135.5,199.62,134,201.42Z"/><path d="M191.5,351.62l-4,5.8-.2,11.9c-.2,10.6-.4,12.1-2.3,13.8-1.7,1.6-1.9,2.3-.9,3.4s3.9,1.4,12.3,1.4c13.2,0,14.7-.6,12.1-4.7-1.6-2.3-1.9-4.9-1.9-14.8l-.1-12.1-3.5-4.4C197.1,344.22,196.6,344.22,191.5,351.62Zm8.9,5.8c1.2,1.9,1.6,5,1.6,13.4,0,11,0,11.1-2.5,11.7a14,14,0,0,1-5,0c-2.4-.6-2.5-.9-2.5-9.4C192,358.32,196,350.72,200.4,357.42Z"/><path d="M281.8,347.62a69,69,0,0,0-4.2,6c-2.4,4-2.6,5-2.6,16.2,0,6.9-.4,12.2-1,12.6-1.6,1-1.2,4.2.6,4.9.9.3,6.5.6,12.5.6,9.3,0,11.1-.3,11.6-1.7.4-1-.2-2.3-1.7-3.5-2.1-1.7-2.3-2.6-2.4-14.1l-.1-12.2-4-5.3C286.4,345.62,284.3,344.82,281.8,347.62Zm6.8,10.8c1.6,3.9,1.8,21.3.2,23.2-1.3,1.6-6,1.7-7.6.1s-1.6-18.5-.2-22.5c1.2-3.2,3.8-5.5,5.2-4.6C286.8,354.92,287.8,356.62,288.6,358.42Z"/></g></g></svg>